<svg width="56" height="137" viewBox="0 0 56 137" fill="none" xmlns="http://www.w3.org/2000/svg">
<path d="M44.2669 1.34649C44.3989 0.93422 44.8402 0.707055 45.2524 0.839102L51.9707 2.99092C52.383 3.12297 52.6102 3.56422 52.4781 3.97649C52.3461 4.38876 51.9048 4.61592 51.4925 4.48388L45.5207 2.57115L43.608 8.54296C43.476 8.95523 43.0347 9.1824 42.6224 9.05035C42.2102 8.9183 41.983 8.47705 42.115 8.06478L44.2669 1.34649ZM0.999887 135.882C0.613139 135.2 0.613047 135.2 0.613085 135.2C0.613281 135.2 0.613459 135.2 0.613848 135.2C0.614621 135.199 0.615932 135.199 0.617784 135.198C0.621483 135.195 0.62732 135.192 0.635275 135.188C0.651183 135.178 0.675541 135.164 0.708133 135.145C0.773324 135.107 0.871446 135.05 1.00073 134.973C1.25929 134.818 1.64247 134.585 2.13611 134.274C3.12342 133.651 4.55231 132.715 6.30957 131.466C9.82457 128.969 14.6505 125.224 19.883 120.239C30.352 110.267 42.4217 95.3594 48.9017 75.5873L50.3914 76.0755C43.8057 96.1703 31.5521 111.288 20.9642 121.374C15.6682 126.419 10.7823 130.212 7.21756 132.744C5.43495 134.011 3.982 134.963 2.97245 135.6C2.46764 135.918 2.07363 136.158 1.80461 136.319C1.6701 136.399 1.56683 136.459 1.49658 136.5C1.46145 136.521 1.43458 136.536 1.41618 136.547C1.40698 136.552 1.3999 136.556 1.39497 136.559C1.3925 136.56 1.39057 136.562 1.38918 136.562C1.38849 136.563 1.38785 136.563 1.3875 136.563C1.387 136.564 1.38664 136.564 0.999887 135.882ZM48.9017 75.5873C55.3805 55.8188 54.2344 37.4024 51.4618 23.9163C50.0758 17.1746 48.2846 11.6716 46.8415 7.8576C46.1201 5.95085 45.486 4.46705 45.0336 3.46254C44.8074 2.96031 44.6267 2.57798 44.5032 2.32258C44.4415 2.19488 44.3941 2.09892 44.3625 2.03559C44.3466 2.00392 44.3348 1.98041 44.327 1.96517C44.3232 1.95755 44.3203 1.952 44.3186 1.94852C44.3177 1.94678 44.3171 1.94557 44.3167 1.94487C44.3165 1.94452 44.3165 1.9444 44.3164 1.94422C44.3164 1.94422 44.3164 1.94435 45.0133 1.58558C45.7102 1.2268 45.7104 1.2272 45.7107 1.22772C45.7109 1.22807 45.7112 1.22873 45.7116 1.22943C45.7123 1.23083 45.7133 1.23275 45.7145 1.2352C45.717 1.24009 45.7206 1.24707 45.7252 1.25613C45.7344 1.27423 45.7477 1.30064 45.765 1.33524C45.7995 1.40444 45.8499 1.5064 45.9146 1.64023C46.044 1.9079 46.2308 2.30311 46.463 2.81879C46.9275 3.85012 47.5741 5.36364 48.3078 7.30285C49.7749 11.1807 51.5918 16.7642 52.9973 23.6006C55.8078 37.2707 56.9783 55.9772 50.3914 76.0755L48.9017 75.5873Z" fill="#555555"/>
</svg>
