<svg width="157" height="312" viewBox="0 0 157 312" fill="none" xmlns="http://www.w3.org/2000/svg">
<path d="M78.318 1.30066C78.8571 1.1807 79.3914 1.52049 79.5114 2.05957L81.4663 10.8447C81.5863 11.3838 81.2465 11.918 80.7074 12.038C80.1683 12.158 79.634 11.8182 79.5141 11.2791L77.7763 3.47014L69.9673 5.20785C69.4282 5.32781 68.894 4.98805 68.774 4.44894C68.654 3.90987 68.9938 3.37559 69.5329 3.25562L78.318 1.30066ZM97.5296 305.772C96.674 306.29 96.6737 306.289 96.6733 306.288C96.6729 306.288 96.6722 306.287 96.6714 306.285C96.6698 306.283 96.6674 306.279 96.6642 306.273C96.6579 306.263 96.6485 306.247 96.6362 306.227C96.6114 306.186 96.5748 306.125 96.5264 306.044C96.4298 305.882 96.2867 305.642 96.0999 305.327C95.7263 304.695 95.178 303.761 94.4775 302.547C93.0765 300.119 91.0667 296.573 88.6283 292.095C83.7518 283.139 77.1599 270.452 70.2957 255.522C56.576 225.682 41.7328 186.808 37.3699 150.845L39.3554 150.604C43.6807 186.258 58.4211 224.908 72.1128 254.687C78.9543 269.567 85.525 282.213 90.3848 291.139C92.8146 295.601 94.8162 299.133 96.2097 301.547C96.9065 302.755 97.4512 303.683 97.8213 304.308C98.0063 304.621 98.1477 304.858 98.2426 305.017C98.2901 305.096 98.3259 305.156 98.3498 305.196C98.3617 305.215 98.3707 305.23 98.3766 305.24C98.3796 305.245 98.3818 305.249 98.3832 305.251C98.3839 305.252 98.3844 305.253 98.3848 305.254C98.3851 305.254 98.3852 305.254 97.5296 305.772ZM37.3699 150.845C32.9965 114.795 43.107 77.4991 54.2608 49.2768C59.8423 35.1541 65.6957 23.2772 70.1544 14.9295C72.384 10.7552 74.2656 7.46214 75.5909 5.2107C76.2537 4.08492 76.7774 3.2195 77.1361 2.63443C77.3155 2.34187 77.4536 2.11943 77.5472 1.96954C77.5941 1.8946 77.6297 1.8378 77.6539 1.79948C77.666 1.78032 77.6752 1.76575 77.6815 1.75586C77.6846 1.75091 77.687 1.74711 77.6887 1.74452C77.6895 1.74319 77.6902 1.74212 77.6906 1.74144C77.6911 1.74067 77.6914 1.74018 78.5352 2.27679C79.379 2.8134 79.379 2.81351 79.3788 2.81389C79.3784 2.81439 79.378 2.81507 79.3774 2.8161C79.376 2.81816 79.374 2.82139 79.3712 2.82577C79.3657 2.83456 79.3572 2.84799 79.3458 2.86601C79.3231 2.90208 79.2888 2.9566 79.2434 3.02923C79.1527 3.17445 79.0175 3.39215 78.8411 3.67984C78.4884 4.25516 77.9708 5.11033 77.3145 6.2253C76.0017 8.45529 74.1339 11.7242 71.9185 15.8718C67.4874 24.1679 61.6685 35.9748 56.1209 50.0119C45.0163 78.1094 35.0406 115.038 39.3554 150.604L37.3699 150.845Z" fill="#555555"/>
</svg>
