<svg width="1203" height="356" viewBox="0 0 1203 356" fill="none" xmlns="http://www.w3.org/2000/svg">
<path d="M146.239 118.947C134.303 123.92 113.911 131.38 87.5521 172.66V116.46L0.0192871 136.354V144.808C20.4105 155.253 24.8866 162.713 24.8866 179.623V290.033C24.8866 315.895 24.3892 336.287 4.99274 342.255V350.71H107.943V342.255C90.0389 337.281 87.5521 317.885 87.5521 290.033V186.586C105.954 156.745 126.345 151.771 126.345 157.242C126.345 166.194 130.324 174.649 137.784 181.612C153.699 195.04 176.577 193.051 190.005 177.633C203.434 162.713 201.942 138.84 186.524 125.412C175.582 116.46 156.683 114.47 146.239 118.947Z" fill="black"/>
<path d="M343.091 116.46C267.494 116.46 224.722 170.173 224.722 235.823C224.722 300.975 267.494 355.186 343.091 355.186C419.185 355.186 461.459 300.975 461.459 235.823C461.459 170.173 419.185 116.46 343.091 116.46ZM343.091 346.731C307.282 346.731 297.832 325.842 297.832 235.823C297.832 145.803 307.282 124.915 343.091 124.915C378.9 124.915 387.852 145.803 387.852 235.823C387.852 325.842 378.9 346.731 343.091 346.731Z" fill="black"/>
<path d="M631.384 221.897L581.152 190.564C537.883 163.21 551.809 124.915 584.136 124.915C635.363 124.915 651.278 169.676 657.743 187.083H666.198V131.38C666.198 131.38 641.331 116.46 584.136 116.46C534.402 116.46 515.503 141.327 515.503 141.327C488.149 177.136 501.08 217.421 549.322 246.764L599.554 277.102C637.352 301.97 631.384 346.731 596.073 346.731C537.883 346.731 521.968 289.039 514.508 269.642H506.053V332.308C506.053 332.308 535.894 355.186 596.073 355.186C646.802 355.186 665.701 328.329 665.701 328.329C690.568 292.52 675.648 249.251 631.384 221.897Z" fill="black"/>
<path d="M783.739 222.892C783.739 175.147 804.13 124.915 833.474 124.915C860.828 124.915 881.219 160.226 881.219 222.892H783.739ZM835.96 116.46C767.327 116.46 719.581 166.692 719.581 236.817C719.581 295.007 764.343 355.186 829.495 355.186C896.139 355.186 925.483 315.895 933.44 290.033L924.985 285.557C912.552 308.933 872.764 318.88 845.907 312.911C812.585 305.451 787.718 280.087 783.739 231.347H941.895C941.895 153.761 908.075 116.46 835.96 116.46ZM764.84 81.6456H783.242L904.594 17.9854L848.891 0.578247L764.84 81.6456Z" fill="black"/>
<path d="M1044.55 222.892C1044.55 175.147 1064.95 124.915 1094.29 124.915C1121.64 124.915 1142.03 160.226 1142.03 222.892H1044.55ZM1096.78 116.46C1028.14 116.46 980.396 166.692 980.396 236.817C980.396 295.007 1025.16 355.186 1090.31 355.186C1156.95 355.186 1186.3 315.895 1194.26 290.033L1185.8 285.557C1173.37 308.933 1133.58 318.88 1106.72 312.911C1073.4 305.451 1048.53 280.087 1044.55 231.347H1202.71C1202.71 153.761 1168.89 116.46 1096.78 116.46Z" fill="black"/>
</svg>
