<svg width="80" height="113" viewBox="0 0 80 113" fill="none" xmlns="http://www.w3.org/2000/svg">
<path d="M76.9437 101.675C77.4673 101.499 77.7495 100.933 77.574 100.409L74.7135 91.8757C74.5379 91.352 73.9711 91.0698 73.4475 91.2453C72.9238 91.4209 72.6416 91.9877 72.8172 92.5113L75.3599 100.096L67.7747 102.639C67.251 102.815 66.9688 103.381 67.1444 103.905C67.3199 104.429 67.8867 104.711 68.4104 104.535L76.9437 101.675ZM19.7681 2.50757C18.7709 2.43225 18.7709 2.43258 18.7708 2.43306C18.7708 2.43342 18.7708 2.43405 18.7707 2.43476C18.7706 2.43619 18.7705 2.43821 18.7703 2.44081C18.7699 2.44602 18.7693 2.45357 18.7686 2.46344C18.7672 2.48318 18.7651 2.51218 18.7625 2.55024C18.7572 2.62636 18.7496 2.73868 18.7404 2.88551C18.7219 3.17916 18.6966 3.61085 18.6693 4.16685C18.6146 5.27878 18.5515 6.88831 18.5175 8.88561C18.4495 12.8791 18.4975 18.4285 18.9623 24.6535C19.8887 37.0621 22.4806 52.3198 29.2383 63.2494L30.9394 62.1976C24.4466 51.6966 21.8781 36.8463 20.9567 24.5046C20.4976 18.3545 20.4499 12.8681 20.5172 8.91966C20.5508 6.94598 20.6131 5.35798 20.6669 4.26512C20.6937 3.71872 20.7185 3.2962 20.7364 3.01124C20.7454 2.86877 20.7527 2.76069 20.7577 2.68873C20.7602 2.65274 20.7621 2.62579 20.7634 2.60808C20.764 2.59922 20.7645 2.59268 20.7648 2.58847C20.765 2.58637 20.7651 2.58485 20.7651 2.58392C20.7652 2.58345 20.7652 2.5832 20.7652 2.58296C20.7652 2.58285 20.7652 2.58289 19.7681 2.50757ZM29.2383 63.2494C35.9772 74.1484 47.7554 83.7455 57.7619 90.5871C62.779 94.0173 67.3784 96.7733 70.7242 98.6722C72.3975 99.6218 73.7583 100.358 74.7022 100.857C75.1742 101.106 75.542 101.297 75.7927 101.425C75.918 101.49 76.014 101.538 76.0791 101.571C76.1117 101.588 76.1365 101.6 76.1534 101.609C76.1619 101.613 76.1684 101.616 76.1728 101.618C76.175 101.619 76.1768 101.62 76.178 101.621C76.1786 101.621 76.1791 101.621 76.1794 101.622C76.1799 101.622 76.1801 101.622 76.6258 100.727C77.0715 99.8316 77.0716 99.8316 77.0715 99.8316C77.0713 99.8315 77.071 99.8314 77.0706 99.8312C77.0698 99.8308 77.0685 99.8301 77.0667 99.8292C77.0631 99.8274 77.0575 99.8246 77.0499 99.8208C77.0347 99.8132 77.0116 99.8015 76.9807 99.786C76.9191 99.7548 76.8266 99.7079 76.7049 99.6455C76.4615 99.5208 76.1012 99.3343 75.6372 99.0888C74.709 98.598 73.3657 97.8717 71.7114 96.9328C68.4019 95.0545 63.8516 92.3279 58.8907 88.9361C48.9415 82.1337 37.4511 72.7291 30.9394 62.1976L29.2383 63.2494Z" fill="#555555"/>
</svg>
