<svg width="73" height="23" viewBox="0 0 73 23" fill="none" xmlns="http://www.w3.org/2000/svg">
<path d="M8.89674 7.83055C8.17674 8.13055 6.94674 8.58055 5.35674 11.0705L5.35674 7.68055L0.0767383 8.88055L0.0767383 9.39055C1.30674 10.0205 1.57674 10.4705 1.57674 11.4905L1.57674 18.1505C1.57674 19.7105 1.54674 20.9405 0.376738 21.3005L0.376738 21.8105L6.58674 21.8105L6.58674 21.3005C5.50674 21.0005 5.35674 19.8305 5.35674 18.1505L5.35674 11.9105C6.46674 10.1105 7.69674 9.81055 7.69674 10.1405C7.69674 10.6805 7.93674 11.1905 8.38674 11.6105C9.34674 12.4205 10.7267 12.3005 11.5367 11.3705C12.3467 10.4705 12.2567 9.03055 11.3267 8.22055C10.6667 7.68055 9.52674 7.56055 8.89674 7.83055ZM20.7709 7.68055C16.2109 7.68055 13.6309 10.9205 13.6309 14.8805C13.6309 18.8105 16.2109 22.0805 20.7709 22.0805C25.3609 22.0805 27.9109 18.8105 27.9109 14.8805C27.9109 10.9205 25.3609 7.68055 20.7709 7.68055ZM20.7709 21.5705C18.6109 21.5705 18.0409 20.3105 18.0409 14.8805C18.0409 9.45055 18.6109 8.19055 20.7709 8.19055C22.9309 8.19055 23.4709 9.45055 23.4709 14.8805C23.4709 20.3105 22.9309 21.5705 20.7709 21.5705ZM38.1608 14.0405L35.1308 12.1505C32.5208 10.5005 33.3608 8.19055 35.3108 8.19055C38.4008 8.19055 39.3608 10.8905 39.7508 11.9405L40.2608 11.9405L40.2608 8.58055C40.2608 8.58055 38.7608 7.68055 35.3108 7.68055C32.3108 7.68055 31.1708 9.18055 31.1708 9.18055C29.5208 11.3405 30.3008 13.7705 33.2108 15.5405L36.2408 17.3705C38.5208 18.8705 38.1608 21.5705 36.0308 21.5705C32.5208 21.5705 31.5608 18.0905 31.1108 16.9205L30.6008 16.9205L30.6008 20.7005C30.6008 20.7005 32.4008 22.0805 36.0308 22.0805C39.0908 22.0805 40.2308 20.4605 40.2308 20.4605C41.7308 18.3005 40.8308 15.6905 38.1608 14.0405ZM47.3509 14.1005C47.3509 11.2205 48.5809 8.19055 50.3509 8.19055C52.0009 8.19055 53.2309 10.3205 53.2309 14.1005L47.3509 14.1005ZM50.5009 7.68055C46.3609 7.68055 43.4809 10.7105 43.4809 14.9405C43.4809 18.4505 46.1809 22.0805 50.1109 22.0805C54.1309 22.0805 55.9009 19.7105 56.3809 18.1505L55.8709 17.8805C55.1209 19.2905 52.7209 19.8905 51.1009 19.5305C49.0909 19.0805 47.5909 17.5505 47.3509 14.6105L56.8909 14.6105C56.8909 9.93055 54.8509 7.68055 50.5009 7.68055ZM46.2109 5.58055L47.3209 5.58055L54.6409 1.74055L51.2809 0.690545L46.2109 5.58055ZM63.0833 14.1005C63.0833 11.2205 64.3133 8.19055 66.0833 8.19055C67.7333 8.19055 68.9633 10.3205 68.9633 14.1005L63.0833 14.1005ZM66.2333 7.68055C62.0933 7.68055 59.2133 10.7105 59.2133 14.9405C59.2133 18.4505 61.9133 22.0805 65.8433 22.0805C69.8633 22.0805 71.6333 19.7105 72.1133 18.1505L71.6033 17.8805C70.8533 19.2905 68.4533 19.8905 66.8333 19.5305C64.8233 19.0805 63.3233 17.5505 63.0833 14.6105L72.6233 14.6105C72.6233 9.93055 70.5833 7.68055 66.2333 7.68055Z" fill="white"/>
</svg>
